<svg width="86" height="33" viewBox="0 0 86 33" fill="none" xmlns="http://www.w3.org/2000/svg">
<rect width="33" height="33" rx="16.5" fill="white"/>
<path fill-rule="evenodd" clip-rule="evenodd" d="M16.1959 11.0215C13.7062 11.0215 11.5506 12.7507 11.0105 15.181L9.5 21.9784C11.9897 21.9784 14.1453 20.2492 14.6854 17.8189L16.1959 11.0215ZM23.4991 11.0216C21.0094 11.0216 18.8538 12.7508 18.3137 15.1811L16.8032 21.9785C19.2928 21.9785 21.4485 20.2493 21.9885 17.8189L23.4991 11.0216Z" fill="black"/>
<path d="M49.325 19.086L47.741 14.757C47.663 14.565 47.582 14.337 47.498 14.073C47.414 13.809 47.33 13.524 47.246 13.218C47.168 13.524 47.087 13.812 47.003 14.082C46.919 14.346 46.838 14.577 46.76 14.775L45.185 19.086H49.325ZM53.6 24H51.728C51.518 24 51.347 23.949 51.215 23.847C51.083 23.739 50.984 23.607 50.918 23.451L49.946 20.796H44.555L43.583 23.451C43.535 23.589 43.442 23.715 43.304 23.829C43.166 23.943 42.995 24 42.791 24H40.901L46.022 10.986H48.488L53.6 24ZM56.8015 21.606C57.0535 21.912 57.3265 22.128 57.6205 22.254C57.9205 22.38 58.2445 22.443 58.5925 22.443C58.9285 22.443 59.2315 22.38 59.5015 22.254C59.7715 22.128 59.9995 21.936 60.1855 21.678C60.3775 21.42 60.5245 21.096 60.6265 20.706C60.7285 20.31 60.7795 19.845 60.7795 19.311C60.7795 18.771 60.7345 18.315 60.6445 17.943C60.5605 17.565 60.4375 17.259 60.2755 17.025C60.1135 16.791 59.9155 16.62 59.6815 16.512C59.4535 16.404 59.1925 16.35 58.8985 16.35C58.4365 16.35 58.0435 16.449 57.7195 16.647C57.3955 16.839 57.0895 17.112 56.8015 17.466V21.606ZM56.6845 16.026C57.0625 15.6 57.4915 15.255 57.9715 14.991C58.4515 14.727 59.0155 14.595 59.6635 14.595C60.1675 14.595 60.6265 14.7 61.0405 14.91C61.4605 15.12 61.8205 15.426 62.1205 15.828C62.4265 16.224 62.6605 16.716 62.8225 17.304C62.9905 17.886 63.0745 18.555 63.0745 19.311C63.0745 20.001 62.9815 20.64 62.7955 21.228C62.6095 21.816 62.3425 22.326 61.9945 22.758C61.6525 23.19 61.2355 23.529 60.7435 23.775C60.2575 24.015 59.7115 24.135 59.1055 24.135C58.5895 24.135 58.1485 24.057 57.7825 23.901C57.4165 23.739 57.0895 23.517 56.8015 23.235V27.015H54.5785V14.766H55.9375C56.2255 14.766 56.4145 14.901 56.5045 15.171L56.6845 16.026ZM67.0319 21.606C67.2839 21.912 67.5569 22.128 67.8509 22.254C68.1509 22.38 68.4749 22.443 68.8229 22.443C69.1589 22.443 69.4619 22.38 69.7319 22.254C70.0019 22.128 70.2299 21.936 70.4159 21.678C70.6079 21.42 70.7549 21.096 70.8569 20.706C70.9589 20.31 71.0099 19.845 71.0099 19.311C71.0099 18.771 70.9649 18.315 70.8749 17.943C70.7909 17.565 70.6679 17.259 70.5059 17.025C70.3439 16.791 70.1459 16.62 69.9119 16.512C69.6839 16.404 69.4229 16.35 69.1289 16.35C68.6669 16.35 68.2739 16.449 67.9499 16.647C67.6259 16.839 67.3199 17.112 67.0319 17.466V21.606ZM66.9149 16.026C67.2929 15.6 67.7219 15.255 68.2019 14.991C68.6819 14.727 69.2459 14.595 69.8939 14.595C70.3979 14.595 70.8569 14.7 71.2709 14.91C71.6909 15.12 72.0509 15.426 72.3509 15.828C72.6569 16.224 72.8909 16.716 73.0529 17.304C73.2209 17.886 73.3049 18.555 73.3049 19.311C73.3049 20.001 73.2119 20.64 73.0259 21.228C72.8399 21.816 72.5729 22.326 72.2249 22.758C71.8829 23.19 71.4659 23.529 70.9739 23.775C70.4879 24.015 69.9419 24.135 69.3359 24.135C68.8199 24.135 68.3789 24.057 68.0129 23.901C67.6469 23.739 67.3199 23.517 67.0319 23.235V27.015H64.8089V14.766H66.1679C66.4559 14.766 66.6449 14.901 66.7349 15.171L66.9149 16.026ZM85.2799 24H82.8679C82.6999 24 82.5649 23.958 82.4629 23.874C82.3669 23.79 82.2889 23.694 82.2289 23.586L79.2139 18.591C79.1659 18.741 79.1089 18.87 79.0429 18.978L76.1539 23.586C76.0819 23.688 75.9979 23.784 75.9019 23.874C75.8119 23.958 75.6919 24 75.5419 24H73.2829L77.6029 17.304L73.4539 10.986H75.8659C76.0339 10.986 76.1539 11.01 76.2259 11.058C76.3039 11.1 76.3759 11.172 76.4419 11.274L79.4029 16.044C79.4629 15.894 79.5349 15.744 79.6189 15.594L82.3369 11.319C82.4029 11.205 82.4749 11.121 82.5529 11.067C82.6309 11.013 82.7299 10.986 82.8499 10.986H85.1629L80.9779 17.205L85.2799 24Z" fill="white"/>
</svg>
